<svg width="27" height="25" viewBox="0 0 27 25" fill="none" xmlns="http://www.w3.org/2000/svg">
<path d="M24.6316 4.44135H19.6306V3.44135C19.6297 2.64598 19.3133 1.88344 18.7509 1.32103C18.1885 0.758618 17.426 0.442255 16.6306 0.441345H10.6306C9.83525 0.442255 9.07271 0.758618 8.5103 1.32103C7.94789 1.88344 7.63153 2.64598 7.63062 3.44135V4.44135H2.63159C2.10134 4.44195 1.59299 4.65286 1.21805 5.0278C0.843106 5.40274 0.632198 5.9111 0.631592 6.44135V22.4413C0.632198 22.9716 0.843106 23.4799 1.21805 23.8549C1.59299 24.2298 2.10134 24.4407 2.63159 24.4413H24.6316C25.1618 24.4407 25.6702 24.2298 26.0451 23.8549C26.4201 23.4799 26.631 22.9716 26.6316 22.4413V6.44135C26.631 5.9111 26.4201 5.40274 26.0451 5.0278C25.6702 4.65286 25.1618 4.44195 24.6316 4.44135ZM9.63062 3.44135C9.63092 3.17622 9.73637 2.92204 9.92384 2.73457C10.1113 2.5471 10.3655 2.44165 10.6306 2.44135H16.6306C16.8957 2.44165 17.1499 2.5471 17.3374 2.73457C17.5249 2.92204 17.6303 3.17622 17.6306 3.44135V4.44135H9.63062V3.44135ZM17.1306 15.4413H14.6306V17.9413C14.6306 18.2066 14.5253 18.4609 14.3377 18.6485C14.1502 18.836 13.8958 18.9413 13.6306 18.9413C13.3654 18.9413 13.111 18.836 12.9235 18.6485C12.736 18.4609 12.6306 18.2066 12.6306 17.9413V15.4413H10.1306C9.8654 15.4413 9.61104 15.336 9.42351 15.1485C9.23597 14.9609 9.13062 14.7066 9.13062 14.4413C9.13062 14.1761 9.23597 13.9218 9.42351 13.7342C9.61104 13.5467 9.8654 13.4413 10.1306 13.4413H12.6306V10.9413C12.6306 10.6761 12.736 10.4218 12.9235 10.2342C13.111 10.0467 13.3654 9.94135 13.6306 9.94135C13.8958 9.94135 14.1502 10.0467 14.3377 10.2342C14.5253 10.4218 14.6306 10.6761 14.6306 10.9413V13.4413H17.1306C17.3958 13.4413 17.6502 13.5467 17.8377 13.7342C18.0253 13.9218 18.1306 14.1761 18.1306 14.4413C18.1306 14.7066 18.0253 14.9609 17.8377 15.1485C17.6502 15.336 17.3958 15.4413 17.1306 15.4413Z" fill="black"/>
</svg>
