<svg width="27" height="27" viewBox="0 0 27 27" fill="none" xmlns="http://www.w3.org/2000/svg">
<path d="M26.6307 10.4413V16.4413C26.6301 16.9716 26.4192 17.4799 26.0442 17.8549C25.6693 18.2298 25.1609 18.4407 24.6307 18.4413H18.6307V24.4413C18.6301 24.9716 18.4192 25.4799 18.0442 25.8549C17.6693 26.2298 17.1609 26.4407 16.6307 26.4413H10.6307C10.1004 26.4407 9.59207 26.2298 9.21713 25.8549C8.84219 25.4799 8.63128 24.9716 8.63068 24.4413V18.4413H2.63068C2.10043 18.4407 1.59207 18.2298 1.21713 17.8549C0.842191 17.4799 0.631283 16.9716 0.630676 16.4413V10.4413C0.631283 9.9111 0.842191 9.40274 1.21713 9.0278C1.59207 8.65286 2.10043 8.44195 2.63068 8.44135H8.63068V2.44135C8.63128 1.9111 8.84219 1.40274 9.21713 1.0278C9.59207 0.65286 10.1004 0.441952 10.6307 0.441345H16.6307C17.1609 0.441952 17.6693 0.65286 18.0442 1.0278C18.4192 1.40274 18.6301 1.9111 18.6307 2.44135V8.44135H24.6307C25.1609 8.44195 25.6693 8.65286 26.0442 9.0278C26.4192 9.40274 26.6301 9.9111 26.6307 10.4413Z" fill="black"/>
</svg>
