<svg width="27" height="27" viewBox="0 0 27 27" fill="none" xmlns="http://www.w3.org/2000/svg">
<path d="M13.6307 0.520508C11.3063 0.520294 9.02438 1.14327 7.02258 2.32456C5.02078 3.50585 3.3723 5.20225 2.24884 7.23707C1.12538 9.27189 0.568028 11.5707 0.634826 13.8941C0.701625 16.2175 1.39013 18.4805 2.62865 20.4474C3.86716 22.4143 5.61037 24.0132 7.67674 25.0775C9.7431 26.1419 12.057 26.6327 14.3775 26.499C16.6981 26.3652 18.9403 25.6117 20.8707 24.317C22.801 23.0223 24.349 21.2337 25.3533 19.1376C24.6423 19.401 23.8888 19.5308 23.1307 19.5205C20.8448 19.5205 19.5651 18.5199 18.8942 17.6804C18.7379 17.4844 18.5968 17.2767 18.472 17.0592C17.7571 18.0386 16.7623 18.7784 15.6187 19.1812C14.4751 19.5841 13.2363 19.631 12.0654 19.3159C10.8946 19.0008 9.84669 18.3384 9.05976 17.4159C8.27283 16.4935 7.7838 15.3543 7.65708 14.1484C7.53036 12.9426 7.77191 11.7266 8.3499 10.6608C8.9279 9.59489 9.81522 8.72911 10.895 8.17749C11.9747 7.62586 13.1962 7.41427 14.3986 7.57058C15.601 7.72689 16.7278 8.24377 17.6307 9.05313V8.52051C17.6307 8.25529 17.736 8.00094 17.9235 7.8134C18.1111 7.62586 18.3654 7.52051 18.6307 7.52051C18.8959 7.52051 19.1502 7.62586 19.3378 7.8134C19.5253 8.00094 19.6307 8.25529 19.6307 8.52051V13.5205C19.6307 15.3453 20.2378 17.5205 23.1307 17.5205C25.9239 17.5205 26.586 15.4926 26.6282 13.7102C26.6291 13.647 26.6307 13.5839 26.6307 13.5205C26.6268 10.0739 25.2559 6.76956 22.8187 4.33243C20.3816 1.8953 17.0773 0.524409 13.6307 0.520508Z" fill="black"/>
</svg>
