<svg width="23" height="29" viewBox="0 0 23 29" fill="none" xmlns="http://www.w3.org/2000/svg">
<path d="M11.6299 0.52124C8.71362 0.524701 5.91774 1.68474 3.85559 3.74689C1.79344 5.80904 0.633404 8.60492 0.629944 11.5212C0.629944 20.9333 10.6299 28.0427 11.0557 28.3406C11.2241 28.4582 11.4246 28.5212 11.6299 28.5212C11.8353 28.5212 12.0358 28.4582 12.2042 28.3406C12.6299 28.0427 22.6299 20.9333 22.6299 11.5212C22.6265 8.60492 21.4664 5.80904 19.4043 3.74689C17.3421 1.68474 14.5463 0.5247 11.6299 0.52124ZM11.6307 7.5216C12.4218 7.5216 13.1952 7.7562 13.853 8.19572C14.5108 8.63525 15.0234 9.25996 15.3262 9.99087C15.6289 10.7218 15.7082 11.526 15.5538 12.302C15.3995 13.0779 15.0185 13.7906 14.4591 14.35C13.8997 14.9094 13.187 15.2904 12.411 15.4447C11.6351 15.5991 10.8308 15.5199 10.0999 15.2171C9.36904 14.9144 8.74432 14.4017 8.3048 13.7439C7.86527 13.0861 7.63068 12.3127 7.63068 11.5216C7.63066 10.9963 7.73411 10.4762 7.93513 9.99085C8.13614 9.50554 8.43078 9.06458 8.80222 8.69314C9.17365 8.3217 9.61462 8.02707 10.0999 7.82605C10.5852 7.62504 11.1054 7.52159 11.6307 7.5216Z" fill="black"/>
</svg>
