<svg width="26" height="25" viewBox="0 0 26 25" fill="none" xmlns="http://www.w3.org/2000/svg">
<path d="M24.3771 16.8033L18.5223 14.2942C18.2167 14.1626 17.8829 14.1096 17.5515 14.1401C17.2201 14.1705 16.9016 14.2834 16.625 14.4685L13.4946 16.5552C11.5814 15.6247 10.033 14.083 9.09399 12.174L9.09423 12.1737L11.1736 8.99646C11.3546 8.72063 11.4644 8.40424 11.4932 8.07558C11.522 7.74693 11.4689 7.41626 11.3386 7.11316L8.82715 1.25342C8.65619 0.855659 8.36099 0.523977 7.98575 0.308034C7.61051 0.0920911 7.17541 0.00350612 6.74561 0.0555428C5.05669 0.272694 3.50459 1.09728 2.37926 2.37525C1.25393 3.65323 0.632341 5.29718 0.630615 7C0.630615 16.9253 8.70532 25 18.6306 25C20.3335 24.9983 21.9774 24.3767 23.2554 23.2513C24.5334 22.126 25.3579 20.5738 25.5751 18.8849C25.627 18.4551 25.5383 18.02 25.3224 17.6448C25.1064 17.2696 24.7748 16.9744 24.3771 16.8033Z" fill="black"/>
</svg>
