<svg width="27" height="27" viewBox="0 0 27 27" fill="none" xmlns="http://www.w3.org/2000/svg">
<path d="M13.6306 0.441284C11.0595 0.441284 8.54605 1.20372 6.40821 2.63218C4.27037 4.06064 2.60413 6.09096 1.62019 8.4664C0.636248 10.8418 0.378805 13.4557 0.880412 15.9775C1.38202 18.4992 2.62015 20.8156 4.43823 22.6337C6.25632 24.4518 8.57269 25.6899 11.0944 26.1915C13.6162 26.6931 16.2301 26.4357 18.6055 25.4517C20.9809 24.4678 23.0113 22.8015 24.4397 20.6637C25.8682 18.5259 26.6306 16.0124 26.6306 13.4413C26.6267 9.99467 25.2558 6.69033 22.8187 4.2532C20.3816 1.81608 17.0772 0.445185 13.6306 0.441284ZM15.1306 19.4413H14.6306V20.4413C14.6306 20.7065 14.5253 20.9609 14.3377 21.1484C14.1502 21.3359 13.8958 21.4413 13.6306 21.4413C13.3654 21.4413 13.1111 21.3359 12.9235 21.1484C12.736 20.9609 12.6306 20.7065 12.6306 20.4413V19.4413H10.6306C10.3654 19.4413 10.1111 19.3359 9.92351 19.1484C9.73598 18.9609 9.63062 18.7065 9.63062 18.4413C9.63062 18.1761 9.73598 17.9217 9.92351 17.7342C10.1111 17.5466 10.3654 17.4413 10.6306 17.4413H15.1306C15.5284 17.4413 15.91 17.2832 16.1913 17.0019C16.4726 16.7206 16.6306 16.3391 16.6306 15.9413C16.6306 15.5435 16.4726 15.1619 16.1913 14.8806C15.91 14.5993 15.5284 14.4413 15.1306 14.4413H12.1306C11.2024 14.4413 10.3121 14.0725 9.65575 13.4162C8.99937 12.7598 8.63062 11.8695 8.63062 10.9413C8.63062 10.013 8.99937 9.12279 9.65575 8.46641C10.3121 7.81003 11.2024 7.44128 12.1306 7.44128H12.6306V6.44128C12.6306 6.17607 12.736 5.92171 12.9235 5.73418C13.1111 5.54664 13.3654 5.44128 13.6306 5.44128C13.8958 5.44128 14.1502 5.54664 14.3377 5.73418C14.5253 5.92171 14.6306 6.17607 14.6306 6.44128V7.44128H16.6306C16.8958 7.44128 17.1502 7.54664 17.3377 7.73418C17.5253 7.92171 17.6306 8.17607 17.6306 8.44128C17.6306 8.7065 17.5253 8.96085 17.3377 9.14839C17.1502 9.33593 16.8958 9.44128 16.6306 9.44128H12.1306C11.7328 9.44128 11.3513 9.59932 11.07 9.88062C10.7887 10.1619 10.6306 10.5435 10.6306 10.9413C10.6306 11.3391 10.7887 11.7206 11.07 12.0019C11.3513 12.2832 11.7328 12.4413 12.1306 12.4413H15.1306C16.0589 12.4413 16.9491 12.81 17.6055 13.4664C18.2619 14.1228 18.6306 15.013 18.6306 15.9413C18.6306 16.8695 18.2619 17.7598 17.6055 18.4162C16.9491 19.0725 16.0589 19.4413 15.1306 19.4413Z" fill="black"/>
</svg>
