<svg width="23" height="27" viewBox="0 0 23 27" fill="none" xmlns="http://www.w3.org/2000/svg">
<path d="M20.6306 2H17.6306V1C17.6306 0.734787 17.5252 0.480441 17.3377 0.292907C17.1502 0.105374 16.8958 1.29282e-05 16.6306 0H6.63062C6.3654 1.29282e-05 6.11106 0.105374 5.92352 0.292907C5.73599 0.480441 5.63063 0.734787 5.63062 1V2H2.63062C2.10037 2.00061 1.59201 2.21151 1.21707 2.58646C0.84213 2.9614 0.631222 3.46975 0.630615 4V25C0.631222 25.5302 0.84213 26.0386 1.21707 26.4135C1.59201 26.7885 2.10037 26.9994 2.63062 27H20.6306C21.1609 26.9994 21.6692 26.7885 22.0442 26.4135C22.4191 26.0386 22.63 25.5302 22.6306 25V4C22.63 3.46975 22.4191 2.9614 22.0442 2.58646C21.6692 2.21151 21.1609 2.00061 20.6306 2ZM7.63062 2H15.6306V5H7.63062V2Z" fill="black"/>
</svg>
