<svg width="27" height="27" viewBox="0 0 27 27" fill="none" xmlns="http://www.w3.org/2000/svg">
<path d="M13.8599 0.919678C11.2887 0.919678 8.7753 1.68211 6.63746 3.11057C4.49962 4.53903 2.83337 6.56935 1.84944 8.94479C0.865496 11.3202 0.608053 13.9341 1.10966 16.4559C1.61127 18.9776 2.8494 21.294 4.66748 23.1121C6.48556 24.9301 8.80194 26.1683 11.3237 26.6699C13.8454 27.1715 16.4593 26.9141 18.8348 25.9301C21.2102 24.9462 23.2405 23.2799 24.669 21.1421C26.0974 19.0043 26.8599 16.4908 26.8599 13.9197C26.8559 10.4731 25.485 7.1688 23.0479 4.73169C20.6107 2.29458 17.3065 0.923661 13.8599 0.919678ZM20.8599 14.9197H13.8599C13.7285 14.9198 13.5985 14.8939 13.4771 14.8437C13.3557 14.7935 13.2455 14.7198 13.1526 14.627C13.0597 14.5341 12.9861 14.4238 12.9358 14.3025C12.8856 14.1811 12.8598 14.051 12.8599 13.9197V6.91968C12.8599 6.65446 12.9652 6.40011 13.1528 6.21257C13.3403 6.02503 13.5947 5.91968 13.8599 5.91968C14.1251 5.91968 14.3794 6.02503 14.567 6.21257C14.7545 6.40011 14.8599 6.65446 14.8599 6.91968V12.9197H20.8599C21.1251 12.9197 21.3794 13.025 21.567 13.2126C21.7545 13.4001 21.8599 13.6545 21.8599 13.9197C21.8599 14.1849 21.7545 14.4392 21.567 14.6268C21.3794 14.8143 21.1251 14.9197 20.8599 14.9197Z" fill="black"/>
</svg>
